/* XPM */
static char *idleR1bg[] = {
/* columns rows colors chars-per-pixel */
"16 16 7 1 ",
"  c None",
". c black",
"X c #261700",
"o c #717171",
"O c #9B4F4F",
"+ c gray55",
"@ c #CFB4B4",
/* pixels */
" .... XXXoOoXX .",
"++++++++++++++++",
"++++++++++++++++",
"++++++++++++++++",
"ooooooOoO++Ooooo",
"++++++++++++++++",
"++++++++++++++++",
"++++++++++++++++",
"O+++OOX .@@+.oo.",
"++++++++@@+.oo.+",
"++++++++@@+++++.",
"oooOOX...@@+X+X.",
"++++++++oooo+++.",
"O++Oooooooo++@@.",
"+++Ooooooooooo+.",
"++++++++++++++++"
};