/* XPM */
static char *_f2111e1ff44491db945a59ac55bc7daHIh1GEIsY2bkNmRO[] = {
/* columns rows colors chars-per-pixel */
"32 32 7 1 ",
"  c None",
". c black",
"X c #765B37",
"o c #515151",
"O c #8D6E46",
"+ c #C2A34E",
"@ c #E7C66B",
/* pixels */
"                                ",
"                                ",
"                                ",
"                                ",
"                                ",
"                                ",
"                                ",
"                                ",
"                                ",
"                                ",
"                                ",
"               ........         ",
"              .OooooooO.        ",
"             .OoOOOOoOX.        ",
"            .OoOOOOoOXX.        ",
"           .OooooooOXX.         ",
"          .OoO@OOoOXX.          ",
"         .OoO++@oOXX.           ",
"        .OOOOOOOOXX.            ",
"        .XXXXXXXXX.             ",
"        .XXXXXXXX.              ",
"         ........               ",
"                                ",
"                                ",
"                                ",
"                                ",
"                                ",
"                                ",
"                                ",
"                                ",
"                                ",
"                                "
};
