/* XPM */
static char *db73ad7ededb45e4e340c502b253ad645mPcOSMRSbTE5lVq[] = {
/* columns rows colors chars-per-pixel */
"32 32 217 2 ",
"   c #1B1601",
".  c #1F1A03",
"X  c #241E03",
"o  c #27391B",
"O  c #3C381B",
"+  c #2B270D",
"@  c #003737",
"#  c #0E2F2F",
"$  c #2A2A2A",
"%  c #3A3724",
"&  c #393939",
"*  c #203920",
"=  c #423C1E",
"-  c #0B453D",
";  c #234533",
":  c #334D2E",
">  c #4F4607",
",  c #564804",
"<  c #585A14",
"1  c #544A19",
"2  c #6A5A0A",
"3  c #6B5C14",
"4  c #78650A",
"5  c #7E7715",
"6  c #7B6915",
"7  c #494427",
"8  c #5B5539",
"9  c #525131",
"0  c #625B37",
"q  c #645B2C",
"w  c #576635",
"e  c #5B6C23",
"r  c #6A6E3A",
"t  c #6F6B2A",
"y  c #004444",
"u  c #004B4B",
"i  c #0B4F49",
"p  c #005454",
"a  c #005B5B",
"s  c #085F5F",
"d  c #1B574D",
"f  c #2E4E49",
"g  c #1E644C",
"h  c #226351",
"j  c #006363",
"k  c #006C6C",
"l  c #007272",
"z  c #007C7C",
"x  c #0B7B75",
"c  c #157474",
"v  c #3A7272",
"b  c #297468",
"n  c #424242",
"m  c #4A4A4A",
"M  c #545454",
"N  c #5B5B5B",
"B  c #515856",
"V  c #535844",
"C  c #625D46",
"Z  c #59704D",
"A  c #6A6655",
"S  c #70744C",
"D  c #457C67",
"F  c #537C6A",
"G  c #407B7B",
"H  c #4E6464",
"J  c #676767",
"K  c #797666",
"L  c #737373",
"P  c #7C7C7C",
"I  c #826C06",
"U  c #89760A",
"Y  c #957C05",
"T  c #957E0A",
"R  c #997F06",
"E  c #8D7A14",
"W  c #83711C",
"Q  c #927D13",
"!  c #88792E",
"~  c #887E54",
"^  c #748751",
"/  c #9B8106",
"(  c #9D840C",
")  c #8D8118",
"_  c #9A8210",
"`  c #A18606",
"'  c #A58A06",
"]  c #A98D06",
"[  c #A58C0C",
"{  c #AE9106",
"}  c #AE9209",
"|  c #B39506",
" . c #BC9D07",
".. c #BA9C09",
"X. c #B39709",
"o. c #A58C15",
"O. c #AC9219",
"+. c #B39819",
"@. c #BCA019",
"#. c #BFA007",
"$. c #94883C",
"%. c #96893D",
"&. c #AA9324",
"*. c #B49A21",
"=. c #AD9736",
"-. c #B19C38",
";. c #A28F38",
":. c #BDA42C",
">. c #B9A027",
",. c #BAA43D",
"<. c #C4A407",
"1. c #C9A707",
"2. c #C4A40A",
"3. c #CDAB09",
"4. c #CBA907",
"5. c #D1AF09",
"6. c #D4B109",
"7. c #CBAB16",
"8. c #D8B71C",
"9. c #DCBD26",
"0. c #CCB33A",
"q. c #D4B937",
"w. c #C8AD30",
"e. c #DEC030",
"r. c #E3C63A",
"t. c #E1C22E",
"y. c #978844",
"u. c #9E9744",
"i. c #8F8244",
"p. c #A59B48",
"a. c #BCA642",
"s. c #898677",
"d. c #C5AF45",
"f. c #CBB64A",
"g. c #CCB84D",
"h. c #CAB347",
"j. c #D7BD44",
"k. c #DCC145",
"l. c #DDC34C",
"z. c #E6CA48",
"x. c #E3CA52",
"c. c #EBD053",
"v. c #008686",
"b. c #008A8A",
"n. c #009494",
"m. c #009C9C",
"M. c #0A9F97",
"N. c #289C9C",
"B. c #00A5A5",
"V. c #00ACAC",
"C. c #00B4B4",
"Z. c #00BCBC",
"A. c #14B3AD",
"S. c #489292",
"D. c #6F8989",
"F. c #50AEA8",
"G. c #67B3AE",
"H. c #00C3C3",
"J. c #01CCCC",
"K. c #0AC2C2",
"L. c #01D3D3",
"P. c #02DCDC",
"I. c #1BD6D6",
"U. c #36DFDF",
"Y. c #02E3E3",
"T. c #09EDED",
"R. c #06EBEB",
"E. c #0CF4F4",
"W. c #08F8F8",
"Q. c #14FBFB",
"!. c #1CFCFC",
"~. c #24FEFE",
"^. c #2BFFFF",
"/. c #2EF4F4",
"(. c #32FFFF",
"). c #3BFFFF",
"_. c #57DEDE",
"`. c #41DDDD",
"'. c #69D8D8",
"]. c #75DCDC",
"[. c #75C1C1",
"{. c #41FFFF",
"}. c #4BFFFF",
"|. c #52FFFF",
" X c #5CFFFF",
".X c #53F4F4",
"XX c #63FFFF",
"oX c #6BFFFF",
"OX c #6AF4F4",
"+X c #74FFFF",
"@X c #7CFFFF",
"#X c #7CF3F3",
"$X c #888888",
"%X c #949289",
"&X c #949494",
"*X c gray61",
"=X c #95ACAC",
"-X c #ABABAA",
";X c #A6A6A6",
":X c #BEBEBE",
">X c #B7B6B4",
",X c #B0AEA5",
"<X c #BDCECE",
"1X c #BBD3D3",
"2X c #A7C0C0",
"3X c #84FFFF",
"4X c #89FFFF",
"5X c #8CF0F0",
"6X c #91F3F3",
"7X c #C8C8C8",
"8X c #D2D2D2",
"9X c #DADADA",
"0X c #DEFFFF",
"qX c #E4E4E4",
"wX c #E9E9E9",
"eX c #F4F4F4",
"rX c #FFFFFF",
/* pixels */
"H.J.P.Y.W.Q.~.(.{.|. XoX+X+X@X5X1X7X9XqXeXrXrXrXrXrXrXrXrXrXrXrX",
"Z.H.J.P.T.W.!.^.{.|.XXoX+X@X@X5X=X;X>X:X8XqXeXrXrXrXrXrXrXrXrXrX",
"B.V.Z.L.Y.E.!.^.{.|.XX+X@X3X3X].D.N J L $X;XqXrXrXrXrXrXrXrXrXrX",
"n.m.V.H.P.R.Q.~.).|.XX+X@X#X].G.Z 9 8 C A s.>X8X8X8X9XqXeXrXrXrX",
"z v.m.V.J.Y.E.!.).|.XX+X@X].S.F S $.$.i.i.~ K L L P &X>XqXrXrXrX",
"k l v.m.Z.L.T.Q.(.}. XOX'.G.F Z $.=.=.=.-.y.S C C A K %X>X9XeXrX",
"j k z b.B.H.Y.E.~.).|._.S.F ^ %.&.&.&.:.h.h.p.y.y.y.i.~ K &X9XrX",
"p a k z n.C.L.T.!./.`.F.D S p.,.&.o.O.>.k.x.f.d.d.,.;.t 7 J 7XrX",
"u p a l v.B.H.P.E.I.N.D ^ p.g.0.O.( ( *.k.c.x.x.l.0.&.6 + m 7XrX",
"y u p j z n.C.H.J.A.b Z p.g.x.k.>.O.O.:.k.c.z.z.r.w.o.2 X n :XrX",
"y y u a l v.B.m.z b ^ p.g.x.c.x.j.q.q.j.z.z.t.9.8.@.T , . n :XrX",
"y y u p j l v.x h Z u.h.j.k.k.k.z.z.z.r.r.t.8.3.2.[ I ,   n :XrX",
"y y u p j j p d S u.g.j.:.*.+.:.k.z.9.8.8.8.5.<.} Y 4 >   n :XrX",
"u u u u p i ; w u.h.j.0.O.( ( O.w.q.8.6.6.5.3. .` U 4 >   n :XrX",
"p p p u @ ; r u.f.j.w.O.( T Y ( o.+.3.6.6.5.3. .` U 4 >   n :XrX",
"v b d d ; 9 ;.f.x.k.*.( T Y Y Y Y ' 1.6.6.5.3.<.{ R I , . f 2X0X",
"=XD.H V r %.h.x.c.k.*.( T Y Y Y Y ' <.6.6.6.5.3.1.../ 2 X f [.4X",
">X*XJ C i.a.l.c.z.q.@.[ ( Y Y / ` | 1.6.6.6.5.3.1.X.) e : v '.@X",
";X$XN V $.a.l.z.e.8.7. .' / R ` ..1.5.6.6.5.4.<.| ) w D F.'.#X3X",
"&XP M 8 ! -.0.q.7.2.3.1.| ] ] | 1.5.3.4.1...[ E W r D F.].3X4X4X",
"P J m 9 W o.O.+.[ } <.3.1.<.<.1.5.3.<. .| Q < : : D F.'.#X3X4X4X",
"J N n 7 6 / ` ` / '  .3.5.5.3.4.4...( U 5 e d s c N._.oX@X3X3X4X",
"J M & 7 6 / ' ' ` ] <.3.5.3.#...| T > o : g M.K.I.U..XoX+X@X3X3X",
"M m & = 4 ` { | ] ]  .<.<...o.E U < * @ - l Z.T.!.(.}. XoX+X@X@X",
"m n $ O 4 '  .<.| ] ] { | _ t 7 O o - p k b.Z.P.E.~.).}. XXXoX+X",
"n & $ O 4 ( ....[ Q E E E ! S B # # u j z n.C.J.R.Q.^.).}. XXXXX",
"n & $ % 3 U ( T 6 q 0 8 8 K ,X=Xh @ u a l v.B.Z.P.T.Q.~.).}.|. X",
"n & & % 1 2 2 3 0 A J L L &X9X<Xv y u p j z n.V.H.P.T.Q.~.(.{.}.",
"n n n & % + + % A %X-X7X7X9XeX<Xv y u p j l v.m.C.J.Y.E.Q.~.(.).",
"m m m n & $ $ & P -X7XqXeXrXrX1XG u u p a k z n.B.Z.L.Y.E.Q.~.^.",
"M M M M M M N J $X-X7X8XwXeXrX1XG p p a a k z v.m.V.H.L.R.E.Q.!.",
"N N M N J J P $X&X-X:X8XqXeXrX1XS.a p a j k z v.n.V.Z.J.Y.E.W.Q."
};
