/* XPM */
static char *_0593008996947afd8e97b8e81478679cUrCtX0JtDHBSHwa[] = {
/* columns rows colors chars-per-pixel */
"16 16 95 2 ",
"   c #00C2C2",
".  c #00DFDF",
"X  c #04FFFF",
"o  c #29FFFF",
"O  c #49FFFF",
"+  c #65FFFF",
"@  c #76FFFF",
"#  c #7AFFFF",
"$  c gray76",
"%  c #DFDFDF",
"&  c white",
"*  c #009C9C",
"=  c #00BDBD",
"-  c #00EBEB",
";  c #1FFFFF",
":  c #4BFFFF",
">  c #6EFFFF",
",  c #84FFFF",
"<  c #88FFFF",
"1  c gray61",
"2  c gray74",
"3  c gray92",
"4  c #007676",
"5  c #009898",
"6  c #00CECE",
"7  c #0DFFFF",
"8  c #44FFFF",
"9  c #6DFFFF",
"0  c #85FFFF",
"q  c #8BFFFF",
"w  c #767676",
"e  c #989898",
"r  c #CECECE",
"t  c #005A5A",
"y  c #007777",
"u  c #00ACAC",
"i  c #00EFEF",
"p  c #2EFFFF",
"a  c #5EFFFF",
"s  c #78FFFF",
"d  c #81FFFF",
"f  c #5A5A5A",
"g  c #777777",
"h  c #ACACAC",
"j  c #EFEFEF",
"k  c #004747",
"l  c #005E5E",
"z  c #008D8D",
"x  c #00CBCB",
"c  c #0AFFFF",
"v  c #3EFFFF",
"b  c gray28",
"n  c gray37",
"m  c #8D8D8D",
"M  c #CBCBCB",
"N  c #004040",
"B  c #004E4E",
"V  c #007373",
"C  c #00A6A6",
"Z  c #00DDDD",
"A  c #12FFFF",
"S  c #3AFFFF",
"D  c #52FFFF",
"F  c gray25",
"G  c #4E4E4E",
"H  c gray45",
"J  c gray65",
"K  c #DDDDDD",
"L  c #004545",
"P  c #004A4A",
"I  c #006464",
"U  c #008B8B",
"Y  c #00B6B6",
"T  c #00E5E5",
"R  c #11FFFF",
"E  c #31FFFF",
"W  c gray27",
"Q  c gray29",
"!  c #646464",
"~  c #8B8B8B",
"^  c #B6B6B6",
"/  c gray90",
"(  c #005858",
")  c #005757",
"_  c #007E7E",
"`  c #009F9F",
"'  c #00C5C5",
"]  c #00EEEE",
"[  c #10FFFF",
"{  c #585858",
"}  c gray34",
"|  c #7E7E7E",
" . c #9F9F9F",
".. c #C5C5C5",
"X. c #EEEEEE",
/* pixels */
"  . X o O + @ # $ % & & & & & & ",
"* = - ; : > , < 1 2 3 & & & & & ",
"4 5 6 7 8 9 0 q w e r & & & & & ",
"t y u i p a s d f g h j & & & & ",
"k l z x c v a 9 b n m M & & & & ",
"N B V C Z A S D F G H J K & & & ",
"L P I U Y T R E W Q ! ~ ^ / & & ",
"( ) I _ ` ' ] [ { } ! |  ...X.& ",
"$ % & & & & & &   . X o O + @ # ",
"1 2 3 & & & & & * = - ; : > , < ",
"w e r & & & & & 4 5 6 7 8 9 0 q ",
"f g h j & & & & t y u i p a s d ",
"b n m M & & & & k l z x c v a 9 ",
"F G H J K & & & N B V C Z A S D ",
"W Q ! ~ ^ / & & L P I U Y T R E ",
"{ } ! |  ...X.& ( ) I _ ` ' ] [ "
};
