/* XPM */
static char *collectible1718357945[] = {
/* columns rows colors chars-per-pixel */
"16 16 10 1 ",
"  c #66544F",
". c #504542",
"X c #735B50",
"o c #7E6052",
"O c #8C6756",
"+ c #996D59",
"@ c black",
"# c #EFD456",
"$ c #947B05",
"% c #D4B108",
/* pixels */
" .... XXXoOoXX .",
"++++++++@@@+++++",
"+++++++@###@@@++",
"++++++@#$$####@+",
"ooooo@##$$###%@o",
"++++@######%%$@+",
"+++@##$$#%%%$$@+",
"++@##$$$$%%%$$@+",
"O@###$$$$%%%%%@o",
"+@##%%$$%%%%%@++",
"+@%$$%%%%%%@@+++",
"+@%$$%%%%@@+++++",
"o@%%%%%@@ooooOoo",
"+@%%@@@+++++++++",
"++@@++++++++++++",
"++++++++++++++++"
};
