/* XPM */
static char *dstL51718358870[] = {
/* columns rows colors chars-per-pixel */
"16 16 12 1 ",
"  c #66544F",
". c #504542",
"X c black",
"o c #7E6052",
"O c #8C6756",
"+ c #735B50",
"@ c #996D59",
"# c #717171",
"$ c gray55",
"% c #CFB4B4",
"& c #261700",
"* c #9B4F4F",
/* pixels */
" ..XX XXXoOo++ .",
"@@X##X$%%X@@@@@@",
"@@X##X$%%X@@@@@@",
"@X$$$$$%%X@@@@X@",
"oX&$&$%%XX@OoX%X",
"X*$$$$$###XXX%X@",
"@X%%$$#####%%X@@",
"@@X########XX@@@",
"O@X##XXX#XX. ++o",
"@@@@@@@@@@@@@@@@",
"@@@@@@@@@@@@@@@@",
"@@@@@@@@@@@@@@@@",
"oO@@OooooooooOoo",
"@@@@@@@@@@@@@@@@",
"@@@@@@@@@@@@@@@@",
"@@@@@@@@@@@@@@@@"
};
