/* XPM */
static char *dstR51718358870[] = {
/* columns rows colors chars-per-pixel */
"16 16 12 1 ",
"  c #66544F",
". c #504542",
"X c #735B50",
"o c black",
"O c #8C6756",
"+ c #996D59",
"@ c #CFB4B4",
"# c gray55",
"$ c #717171",
"% c #7E6052",
"& c #261700",
"* c #9B4F4F",
/* pixels */
" .... XoooOooX .",
"++++++o@@#o$$o++",
"++++++o@@#o$$o++",
"+o++++o@@#####o+",
"o@o%%%oo@@#&#&o%",
"+o@ooo$$$#####*o",
"++o@@$$$$$##@@o+",
"+++oo$$$$$$$$o++",
"O+++Ooo$ooo$$oX%",
"++++++++++++++++",
"++++++++++++++++",
"++++++++++++++++",
"%O++O%%%%%%%%O%%",
"++++++++++++++++",
"++++++++++++++++",
"++++++++++++++++"
};
