/* XPM */
static char *dooropen1718358025[] = {
/* columns rows colors chars-per-pixel */
"16 16 66 1 ",
"  c #66544F",
". c #504542",
"X c #312628",
"o c #38282D",
"O c #291B21",
"+ c #3C2A31",
"@ c #402E30",
"# c #3F2F2E",
"$ c #735B50",
"% c #996D59",
"& c #6C4C41",
"* c #39262E",
"= c #37232C",
"- c #22151C",
"; c #2B1A23",
": c #1F131A",
"> c #332229",
", c #482F3A",
"< c #7B5749",
"1 c #2C1B24",
"2 c #301D27",
"3 c #49322F",
"4 c #855E4E",
"5 c #67483F",
"6 c #3E282D",
"7 c #412C35",
"8 c #3F2D22",
"9 c #4E3631",
"0 c #3F2A33",
"q c #432C2E",
"w c #311E28",
"e c #271820",
"r c #6D4E30",
"t c #57403A",
"y c #7E6052",
"u c #8C6756",
"i c #21141B",
"p c #533B2C",
"a c #715131",
"s c #272831",
"d c #573D27",
"f c #37212D",
"g c #3C5565",
"h c #483122",
"j c #2E1C25",
"k c #25191A",
"l c #5D432B",
"z c #543C2A",
"x c #6C4F35",
"c c #3A2727",
"v c #674C31",
"b c #3D5465",
"n c #604533",
"m c #64492F",
"M c #3B5161",
"N c #523A27",
"B c #2B2F39",
"V c #7A594C",
"C c #43312F",
"Z c #432F22",
"A c #3B2530",
"S c #59412B",
"D c #422835",
"F c #24161D",
"G c #2A1C1C",
"H c #33231F",
/* pixels */
" ..XoO+O+O+@#$ .",
"%&+*=-;:;:;>,+<%",
"&1234%%%%%%<5;:<",
"6785%%%%%%%%%90q",
"wertyyuyu%%uyyi:",
"+pa5%%%%%%%%%%9,",
"esd5%%%%%%%%%%9f",
"Ogh5%%%%%%%%%%9+",
"jkl5uu$ .... $#f",
"+zxc<%%%%%%%%%9+",
"fzvb5%%%%%%%%%9f",
"+nmM5%%%%%%%%%9+",
";sNBVyyyyyyyyuCf",
":gZ5%%%%%%%%%%9+",
"AkS5%%%%%%%%%%9D",
"FGH4%%%%%%%%%%9F"
};
