/* XPM */
static char *doorclosed1718358025[] = {
/* columns rows colors chars-per-pixel */
"16 16 93 2 ",
"   c #66544F",
".  c #504542",
"X  c #312628",
"o  c #38282D",
"O  c #291B21",
"+  c #3C2A31",
"@  c #402E30",
"#  c #3F2F2E",
"$  c #735B50",
"%  c #996D59",
"&  c #6C4C41",
"*  c #39262E",
"=  c #37232C",
"-  c #22151C",
";  c #2B1A23",
":  c #1F131A",
">  c #332229",
",  c #482F3A",
"<  c #7B5749",
"1  c #2C1B24",
"2  c #301D27",
"3  c #3F2D22",
"4  c #5A412C",
"5  c #63482F",
"6  c #6C4F32",
"7  c #674A2E",
"8  c #4E3725",
"9  c #3E282D",
"0  c #412C35",
"q  c #4C3627",
"w  c #604429",
"e  c #7F5D3A",
"r  c #7A5937",
"t  c #815E3C",
"y  c #7D5B3A",
"u  c #64482D",
"i  c #33231F",
"p  c #3F2A33",
"a  c #432C2E",
"s  c #311E28",
"d  c #271820",
"f  c #745535",
"g  c #825F3D",
"h  c #7C5A39",
"j  c #805D3B",
"k  c #21141B",
"l  c #7F5C3B",
"z  c #3C2A22",
"x  c #272831",
"c  c #422E24",
"v  c #775535",
"b  c #463127",
"n  c #37212D",
"m  c #3C5565",
"M  c #323E4B",
"N  c #232029",
"B  c #755534",
"V  c #2E1C25",
"C  c #25191A",
"Z  c #5E452D",
"A  c #563F2A",
"S  c #493429",
"D  c #543C2A",
"F  c #604531",
"G  c #25181A",
"H  c #37251E",
"J  c #795736",
"K  c #446073",
"L  c #354250",
"P  c #775635",
"I  c #4B3627",
"U  c #394C5C",
"Y  c #415B6D",
"T  c #2C282B",
"R  c #453026",
"E  c #6E4E2F",
"W  c #372720",
"Q  c #2B1E1C",
"!  c #725438",
"~  c #7D5B39",
"^  c #77583A",
"/  c #3B2530",
"(  c #5A412A",
")  c #64492F",
"_  c #6F4F30",
"`  c #3D2920",
"'  c #422835",
"]  c #24161D",
"[  c #2E1E1B",
"{  c #3A271E",
"}  c #372620",
"|  c #32211D",
" . c #281A1A",
/* pixels */
"  . . X o O + O + O + @ # $   . ",
"% & + * = - ; : ; : ; > , + < % ",
"& 1 2 3 4 5 6 5 6 5 7 8 3 ; : < ",
"9 0 q w e 6 r 6 t 6 y u r i p a ",
"s d f w g 6 e 6 h u j w g 5 k : ",
"+ q r 7 g 6 e 6 y w g 7 l 6 z , ",
"d x c z e w g 6 g 6 e 6 v 6 b n ",
"O m M N r w g 6 t 6 r 6 B 6 b + ",
"V C Z A r 7 g u r u g 6 r w S n ",
"+ D r 6 e 6 r u r w F G x H S + ",
"n D J 6 e 6 r w g w S K L L S n ",
"+ D y w g 6 P w g 7 I U Y T R + ",
"; x b H g 6 J 7 g 7 E W Q ! c n ",
": m M N ~ 6 y 6 e 6 E 6 y ^ c + ",
"/ C ( A g ) _ 6 r 6 B 6 P 6 ` ' ",
"] [ { } { | { } { } { } { |  .] "
};
