/* XPM */
static char *srcL41718359242[] = {
/* columns rows colors chars-per-pixel */
"16 16 10 1 ",
"  c #66544F",
". c #504542",
"X c #735B50",
"o c #7E6052",
"O c #8C6756",
"+ c #996D59",
"@ c black",
"# c #717171",
"$ c gray55",
"% c #CFB4B4",
/* pixels */
" .... XXXoOoXX .",
"++++++++++++++++",
"++++++++++++++++",
"++++++++++++++++",
"ooooooOoO++Ooooo",
"++++++++++++++++",
"++++++++++++++++",
"++++++++++++++++",
"O+++OOX .... XXo",
"++++++++++++++++",
"++++++++++++++++",
"++++++++++++++++",
"oO++OooooooooOoo",
"++++++++++++++++",
"+++@@+@@@+++++++",
"++@##@$%%@++++@+"
};
