/* XPM */
static char *EatL41718358561[] = {
/* columns rows colors chars-per-pixel */
"16 16 12 1 ",
"  c #66544F",
". c #504542",
"X c #735B50",
"o c #7E6052",
"O c #8C6756",
"+ c #996D59",
"@ c black",
"# c #717171",
"$ c gray55",
"% c #CFB4B4",
"& c #261700",
"* c #9B4F4F",
/* pixels */
" .... XXXoOoXX .",
"++++++++++++++++",
"++++++++++++++++",
"++++++++++++++++",
"ooo@@o@@@++Ooooo",
"++@##@$%%@++++++",
"++@##@$%%@++++++",
"+@$$$$$%%@++++++",
"O@&$&$%%@@.. XXo",
"@*$$$$$###@@@@@+",
"+@%$$$#####%%%%@",
"++@@#######@@@@+",
"oO++@##@@#@ooOoo",
"++++++++++++++++",
"++++++++++++++++",
"++++++++++++++++"
};
