/* XPM */
static char *EatR51718358623[] = {
/* columns rows colors chars-per-pixel */
"16 16 12 1 ",
"  c #66544F",
". c #504542",
"X c #735B50",
"o c #7E6052",
"O c #8C6756",
"+ c #996D59",
"@ c black",
"# c #CFB4B4",
"$ c gray55",
"% c #717171",
"& c #261700",
"* c #9B4F4F",
/* pixels */
" .... XXXoOoXX .",
"++++++++++++++++",
"++++++++++++++++",
"++++++++++++++++",
"ooooooO@@@+@@ooo",
"++++++@##$@%%@++",
"++++++@##$@%%@++",
"++++++@##$$$$$@+",
"O+++OO@@##$&$&@o",
"+@@@@@%%%$$$$$*@",
"@####%%%%%$$$$@+",
"+@@@@%%%%%%%@@++",
"oO++O@%@@%%@oOoo",
"++++++++++++++++",
"++++++++++++++++",
"++++++++++++++++"
};
