/* XPM */
static char *a4fe306438a54ca9b26fbf137b58ada0Ewq4LavnGRbFOJkt[] = {
/* columns rows colors chars-per-pixel */
"16 16 43 1 ",
"  c None",
". c black",
"X c #550F0A",
"o c #9B1A0A",
"O c #EF3A0C",
"+ c white",
"@ c black",
"# c black",
"$ c #000001",
"% c #FF0001",
"& c #800001",
"* c orange",
"= c #CC8100",
"- c #FF4D00",
"; c #CC3D00",
": c #39FF14",
"> c #24990C",
", c #30CC10",
"< c #1F51FF",
"1 c #1B44CC",
"2 c #173BB3",
"3 c #7B00FF",
"4 c #470099",
"5 c #5C00CC",
"6 c #9D00FF",
"7 c #6B00B3",
"8 c gray70",
"9 c #FBFFFF",
"0 c cyan",
"q c #00B3B3",
"w c #FF10F0",
"e c #B30CAA",
"r c #AEC6CF",
"t c #829399",
"y c #964B00",
"u c #663300",
"i c gray20",
"p c black",
"a c black",
"s c black",
"d c black",
"f c #394D3D",
"g c #808080",
/* pixels */
"                ",
"                ",
"   ...    ...   ",
"  .%%%.  .%%%.  ",
" .%99%%..%%%%%. ",
" .%9%%%%%%%%%%. ",
" .%%%%%%%%%%%%. ",
" $%%%%%%%%%%%%. ",
"  .%%%%%%%%%%.  ",
"   .%%%%%%%%.   ",
"    .%%%%%%.    ",
"     .%%%%.     ",
"      .%%.      ",
"       ..       ",
"                ",
"                "
};
