/* XPM */
static char *srcL51718359341[] = {
/* columns rows colors chars-per-pixel */
"16 16 8 1 ",
"  c #504542",
". c #66544F",
"X c #735B50",
"o c #7E6052",
"O c #8C6756",
"+ c #996D59",
"@ c black",
"# c #CFB4B4",
/* pixels */
" .XXoOoXXX.    .",
"++++++++++++++++",
"++++++++++++++++",
"++++++++++++++++",
"ooooO++OoOoooooo",
"++++++++++++++++",
"++++++++++++++++",
"++@+++++++++++++",
"o@#@    .XOO+++O",
"@#@+++++++++++++",
"#@++++++++++++++",
"@+++++++++++++++",
"ooOooooooooO++Oo",
"++++++++++++++++",
"++++++++++++++++",
"++++++++++++++++"
};
