/* XPM */
static char *srcR41718359385[] = {
/* columns rows colors chars-per-pixel */
"16 16 9 1 ",
"  c #66544F",
". c #504542",
"X c #735B50",
"o c #7E6052",
"O c #8C6756",
"+ c #996D59",
"@ c black",
"# c #CFB4B4",
"$ c #717171",
/* pixels */
" .... XXXoOoXX .",
"++++++++++++++++",
"++++++++++++++++",
"++++++++++++++++",
"ooooooOoO++Ooooo",
"++++++++++++++++",
"++++++++++@++++@",
"+++++++++@#@+++@",
"O+++OOX ..@#@@@@",
"+++++++++++@##$@",
"++++++++++++@@$$",
"++++++++++++++@$",
"oO++OooooooooO@$",
"++++++++++++++++",
"++++++++++++++++",
"++++++++++++++++"
};
