/* XPM */
static char *trap1718357995[] = {
/* columns rows colors chars-per-pixel */
"16 16 12 1 ",
"  c #66544F",
". c #504542",
"X c #735B50",
"o c #7E6052",
"O c #8C6756",
"+ c #996D59",
"@ c black",
"# c #8D6E46",
"$ c #515151",
"% c #765B37",
"& c #E7C66B",
"* c #C2A34E",
/* pixels */
" .... XXXoOoXX .",
"++++++++++++++++",
"++++++++++++++++",
"+++++++@@@@@@@@+",
"oooooo@#$$$$$$#@",
"+++++@#$####$#%@",
"++++@#$####$#%%@",
"+++@#$$$$$$#%%@+",
"O+@#$#&##$#%%@Xo",
"+@#$#**&$#%%@+++",
"@########%%@++++",
"@%%%%%%%%%@+++++",
"@%%%%%%%%@oooOoo",
"+@@@@@@@@+++++++",
"++++++++++++++++",
"++++++++++++++++"
};
