/* XPM */
static char *srcR41718359434[] = {
/* columns rows colors chars-per-pixel */
"16 16 10 1 ",
"  c #66544F",
". c black",
"X c #717171",
"o c gray55",
"O c #CFB4B4",
"+ c #504542",
"@ c #996D59",
"# c #7E6052",
"$ c #8C6756",
"% c #735B50",
/* pixels */
" ....XXXXXooOO.+",
"@@@@@.XXXXXXX.@@",
"@@@@@.X....XX.@@",
"@@@@@@@@@@@@@@@@",
"######$#$@@$####",
"@@@@@@@@@@@@@@@@",
"@@@@@@@@@@@@@@@@",
"@@@@@@@@@@@@@@@@",
"$@@@$$% ++++ %%#",
"@@@@@@@@@@@@@@@@",
"@@@@@@@@@@@@@@@@",
"@@@@@@@@@@@@@@@@",
"#$@@$########$##",
"@@@@@@@@@@@@@@@@",
"@@@@@@@@@@@@@@@@",
"@@@@@@@@@@@@@@@@"
};
