/* XPM */
static char *srcL31718359434[] = {
/* columns rows colors chars-per-pixel */
"16 16 12 1 ",
"  c #66544F",
". c #504542",
"X c black",
"o c #717171",
"O c gray55",
"+ c #CFB4B4",
"@ c #8C6756",
"# c #7E6052",
"$ c #735B50",
"% c #996D59",
"& c #9B4F4F",
"* c #261700",
/* pixels */
" .XooXO++X@#$X+X",
"%XOOOOO++XXXX+X%",
"X&*O*O++XXo++X%%",
"%XOOOOOooooXX%%%",
"#X++OOooooX@####",
"%%XooooXXoX%%%%%",
"%%XooXX%%%%%%%%%",
"%%%%%%%%%%%%%%%%",
"@%%%@@$ .... $$#",
"%%%%%%%%%%%%%%%%",
"%%%%%%%%%%%%%%%%",
"%%%%%%%%%%%%%%%%",
"#@%%@########@##",
"%%%%%%%%%%%%%%%%",
"%%%%%%%%%%%%%%%%",
"%%%%%%%%%%%%%%%%"
};
