/* XPM */
static char *srcR31718359434[] = {
/* columns rows colors chars-per-pixel */
"16 16 12 1 ",
"  c black",
". c #CFB4B4",
"X c #504542",
"o c #66544F",
"O c gray55",
"+ c #717171",
"@ c #996D59",
"# c #261700",
"$ c #9B4F4F",
"% c #7E6052",
"& c #8C6756",
"* c #735B50",
/* pixels */
" . XXo ..O ++ oX",
"@ .    ..OOOOO @",
"@@ ..+  ..O#O#$ ",
"@@@  ++++OOOOO @",
"%%%%% ++++OO.. %",
"@@@@@ +  ++++ @@",
"@@@@@@@@@  ++ @@",
"@@@@@@@@@@@@@@@@",
"&@@@&&*oXXXXo**%",
"@@@@@@@@@@@@@@@@",
"@@@@@@@@@@@@@@@@",
"@@@@@@@@@@@@@@@@",
"%&@@&%%%%%%%%&%%",
"@@@@@@@@@@@@@@@@",
"@@@@@@@@@@@@@@@@",
"@@@@@@@@@@@@@@@@"
};
