/* XPM */
static char *_86aba9d16c04eb2d722faecc4ab8a4fqgOY5caKzka3jnIi[] = {
/* columns rows colors chars-per-pixel */
"16 16 7 1 ",
"  c None",
". c black",
"X c #CFB4B4",
"o c gray55",
"O c #717171",
"+ c #261700",
"@ c #9B4F4F",
/* pixels */
"                ",
"                ",
"                ",
"                ",
"                ",
"                ",
"                ",
"                ",
"       ... ..   ",
"      .XXo.OO.  ",
"      .XXooooo. ",
"      ..XXo+o+. ",
"  ....OOOooooo@.",
" .XXXOOOOOooXX. ",
".X...OOOOOOO..  ",
" .   .O..OO.    "
};
