/* XPM */
static char *_a8fadb50a6f4b2d8ed7a0ef7bf06addUPwpb350NfDOdKDn[] = {
/* columns rows colors chars-per-pixel */
"16 16 101 2 ",
"   c #00C2C2",
".  c #00DFDF",
"X  c #04FFFF",
"o  c #29FFFF",
"O  c #49FFFF",
"+  c #65FFFF",
"@  c #76FFFF",
"#  c #7AFFFF",
"$  c gray76",
"%  c #DFDFDF",
"&  c white",
"*  c #009C9C",
"=  c #00BDBD",
"-  c #00EBEB",
";  c #1FFFFF",
":  c #4BFFFF",
">  c #6EFFFF",
",  c #84FFFF",
"<  c #88FFFF",
"1  c gray61",
"2  c gray74",
"3  c gray92",
"4  c #007676",
"5  c #009898",
"6  c #00CECE",
"7  c #0DFFFF",
"8  c #44FFFF",
"9  c #6DFFFF",
"0  c #85FFFF",
"q  c #8BFFFF",
"w  c #767676",
"e  c #989898",
"r  c #CECECE",
"t  c #005A5A",
"y  c #007777",
"u  c #00ACAC",
"i  c #00EFEF",
"p  c #2EFFFF",
"a  c #5EFFFF",
"s  c #78FFFF",
"d  c #81FFFF",
"f  c #5A5A5A",
"g  c #777777",
"h  c #ACACAC",
"j  c #EFEFEF",
"k  c #004747",
"l  c #005E5E",
"z  c #008D8D",
"x  c #00CBCB",
"c  c #0AFFFF",
"v  c #3EFFFF",
"b  c black",
"n  c #8D8D8D",
"m  c #004040",
"M  c #004E4E",
"N  c #007373",
"B  c #00A6A6",
"V  c #00DDDD",
"C  c #12FFFF",
"Z  c #CFB4B4",
"A  c gray55",
"S  c #717171",
"D  c #004545",
"F  c #004A4A",
"G  c #006464",
"H  c #008B8B",
"J  c #00B6B6",
"K  c #00E5E5",
"L  c #005858",
"P  c #005757",
"I  c #007E7E",
"U  c #009F9F",
"Y  c #00C5C5",
"T  c #261700",
"R  c #9B4F4F",
"E  c gray28",
"W  c gray37",
"Q  c #CBCBCB",
"!  c gray25",
"~  c #4E4E4E",
"^  c gray45",
"/  c gray65",
"(  c #DDDDDD",
")  c #3AFFFF",
"_  c #52FFFF",
"`  c gray27",
"'  c gray29",
"]  c #646464",
"[  c #8B8B8B",
"{  c #B6B6B6",
"}  c gray90",
"|  c #11FFFF",
" . c #31FFFF",
".. c #585858",
"X. c gray34",
"o. c #7E7E7E",
"O. c #9F9F9F",
"+. c #C5C5C5",
"@. c #EEEEEE",
"#. c #00EEEE",
"$. c #10FFFF",
/* pixels */
"  . X o O + @ # $ % & & & & & & ",
"* = - ; : > , < 1 2 3 & & & & & ",
"4 5 6 7 8 9 0 q w e r & & & & & ",
"t y u i p a s d f g h j & & & & ",
"k l z x c v a b b b n b b & & & ",
"m M N B V C b Z Z A b S S b & & ",
"D F G H J K b Z Z A A A A A b & ",
"L P G I U Y b b Z Z A T A T b & ",
"$ % b b b b S S S A A A A A R b ",
"1 b Z Z Z S S S S S A A Z Z b < ",
"b Z b b b S S S S S S S b b 0 q ",
"f b h j & b S b b S S b p a s d ",
"E W n Q & & & & k l z x c v a 9 ",
"! ~ ^ / ( & & & m M N B V C ) _ ",
"` ' ] [ { } & & D F G H J K |  .",
"..X.] o.O.+.@.& L P G I U Y #.$."
};
